<mxfile host="app.diagrams.net" modified="2022-12-21T12:44:47.845Z" agent="5.0 (X11)" etag="Xg7CaCfNG7zS3kzt28wY" version="20.7.4" type="github" pages="8">
  <diagram id="f2ciFOSB5QWkLeRYvo7Q" name="block_chain">
    <mxGraphModel dx="2074" dy="1093" grid="1" gridSize="10" guides="1" tooltips="1" connect="1" arrows="1" fold="1" page="1" pageScale="1" pageWidth="850" pageHeight="1100" math="0" shadow="0">
      <root>
        <mxCell id="0" />
        <mxCell id="1" parent="0" />
        <mxCell id="VLHIMrBtYk3J3vSGHkTV-1" value="&lt;font data-font-src=&quot;https://fonts.googleapis.com/css?family=Gloria+Hallelujah&quot; face=&quot;Gloria Hallelujah&quot;&gt;Genesis&lt;/font&gt;" style="rounded=1;whiteSpace=wrap;html=1;sketch=1;hachureGap=4;fontFamily=Architects Daughter;fontSource=https%3A%2F%2Ffonts.googleapis.com%2Fcss%3Ffamily%3DArchitects%2BDaughter;fontSize=20;fillColor=none;" parent="1" vertex="1">
          <mxGeometry x="40" y="80" width="110" height="60" as="geometry" />
        </mxCell>
        <mxCell id="VLHIMrBtYk3J3vSGHkTV-3" value="&lt;font data-font-src=&quot;https://fonts.googleapis.com/css?family=Gloria+Hallelujah&quot; face=&quot;Gloria Hallelujah&quot;&gt;Block 1&lt;/font&gt;" style="rounded=1;whiteSpace=wrap;html=1;sketch=1;hachureGap=4;fontFamily=Architects Daughter;fontSource=https%3A%2F%2Ffonts.googleapis.com%2Fcss%3Ffamily%3DArchitects%2BDaughter;fontSize=20;fillColor=none;" parent="1" vertex="1">
          <mxGeometry x="190" y="80" width="110" height="60" as="geometry" />
        </mxCell>
        <mxCell id="VLHIMrBtYk3J3vSGHkTV-4" value="Block 2" style="rounded=1;whiteSpace=wrap;html=1;sketch=1;hachureGap=4;fontFamily=Gloria Hallelujah;fontSource=https%3A%2F%2Ffonts.googleapis.com%2Fcss%3Ffamily%3DGloria%2BHallelujah;fontSize=20;fillColor=none;" parent="1" vertex="1">
          <mxGeometry x="340" y="80" width="110" height="60" as="geometry" />
        </mxCell>
        <mxCell id="VLHIMrBtYk3J3vSGHkTV-5" value="Block 21" style="rounded=1;whiteSpace=wrap;html=1;sketch=1;hachureGap=4;fontFamily=Gloria Hallelujah;fontSource=https%3A%2F%2Ffonts.googleapis.com%2Fcss%3Ffamily%3DGloria%2BHallelujah;fontSize=20;fillColor=none;" parent="1" vertex="1">
          <mxGeometry x="540" y="80" width="110" height="60" as="geometry" />
        </mxCell>
        <mxCell id="VLHIMrBtYk3J3vSGHkTV-6" value="Block 22" style="rounded=1;whiteSpace=wrap;html=1;sketch=1;hachureGap=4;fontFamily=Gloria Hallelujah;fontSource=https%3A%2F%2Ffonts.googleapis.com%2Fcss%3Ffamily%3DGloria%2BHallelujah;fontSize=20;fillColor=none;" parent="1" vertex="1">
          <mxGeometry x="690" y="80" width="110" height="60" as="geometry" />
        </mxCell>
        <mxCell id="VLHIMrBtYk3J3vSGHkTV-7" value="" style="endArrow=classicThin;html=1;sketch=1;hachureGap=2;fontFamily=Gloria Hallelujah;fontSource=https%3A%2F%2Ffonts.googleapis.com%2Fcss%3Ffamily%3DGloria%2BHallelujah;fontSize=16;startSize=14;endSize=14;sourcePerimeterSpacing=8;targetPerimeterSpacing=8;entryX=1;entryY=0.5;entryDx=0;entryDy=0;exitX=0;exitY=0.5;exitDx=0;exitDy=0;endFill=0;curved=1;strokeColor=default;metaEdit=0;disableMultiStroke=0;startFill=1;" parent="1" source="VLHIMrBtYk3J3vSGHkTV-3" target="VLHIMrBtYk3J3vSGHkTV-1" edge="1">
          <mxGeometry width="50" height="50" relative="1" as="geometry">
            <mxPoint x="400" y="590" as="sourcePoint" />
            <mxPoint x="450" y="540" as="targetPoint" />
          </mxGeometry>
        </mxCell>
        <mxCell id="NPRbbqzTrsGP8xS9bHB--1" value="" style="endArrow=classicThin;html=1;sketch=1;hachureGap=2;fontFamily=Gloria Hallelujah;fontSource=https%3A%2F%2Ffonts.googleapis.com%2Fcss%3Ffamily%3DGloria%2BHallelujah;fontSize=16;startSize=14;endSize=14;sourcePerimeterSpacing=8;targetPerimeterSpacing=8;entryX=1;entryY=0.5;entryDx=0;entryDy=0;exitX=0;exitY=0.5;exitDx=0;exitDy=0;endFill=0;curved=1;strokeColor=default;metaEdit=0;disableMultiStroke=0;startFill=1;" parent="1" source="VLHIMrBtYk3J3vSGHkTV-4" target="VLHIMrBtYk3J3vSGHkTV-3" edge="1">
          <mxGeometry width="50" height="50" relative="1" as="geometry">
            <mxPoint x="200" y="120" as="sourcePoint" />
            <mxPoint x="160" y="120" as="targetPoint" />
          </mxGeometry>
        </mxCell>
        <mxCell id="NPRbbqzTrsGP8xS9bHB--2" value="" style="endArrow=classicThin;html=1;sketch=1;hachureGap=2;fontFamily=Gloria Hallelujah;fontSource=https%3A%2F%2Ffonts.googleapis.com%2Fcss%3Ffamily%3DGloria%2BHallelujah;fontSize=16;startSize=14;endSize=14;sourcePerimeterSpacing=8;targetPerimeterSpacing=8;entryX=1;entryY=0.5;entryDx=0;entryDy=0;endFill=0;curved=1;strokeColor=default;metaEdit=0;disableMultiStroke=0;startFill=1;" parent="1" target="VLHIMrBtYk3J3vSGHkTV-4" edge="1">
          <mxGeometry width="50" height="50" relative="1" as="geometry">
            <mxPoint x="486" y="109" as="sourcePoint" />
            <mxPoint x="170" y="130" as="targetPoint" />
          </mxGeometry>
        </mxCell>
        <mxCell id="NPRbbqzTrsGP8xS9bHB--3" value="" style="endArrow=classicThin;html=1;sketch=1;hachureGap=2;fontFamily=Gloria Hallelujah;fontSource=https%3A%2F%2Ffonts.googleapis.com%2Fcss%3Ffamily%3DGloria%2BHallelujah;fontSize=16;startSize=14;endSize=14;sourcePerimeterSpacing=8;targetPerimeterSpacing=8;entryX=1;entryY=0.5;entryDx=0;entryDy=0;exitX=0;exitY=0.5;exitDx=0;exitDy=0;endFill=0;curved=1;strokeColor=default;metaEdit=0;disableMultiStroke=0;startFill=1;" parent="1" source="VLHIMrBtYk3J3vSGHkTV-6" target="VLHIMrBtYk3J3vSGHkTV-5" edge="1">
          <mxGeometry width="50" height="50" relative="1" as="geometry">
            <mxPoint x="220" y="140" as="sourcePoint" />
            <mxPoint x="180" y="140" as="targetPoint" />
          </mxGeometry>
        </mxCell>
        <mxCell id="NPRbbqzTrsGP8xS9bHB--4" value="" style="endArrow=classicThin;html=1;sketch=1;hachureGap=2;fontFamily=Gloria Hallelujah;fontSource=https%3A%2F%2Ffonts.googleapis.com%2Fcss%3Ffamily%3DGloria%2BHallelujah;fontSize=16;startSize=14;endSize=14;sourcePerimeterSpacing=8;targetPerimeterSpacing=8;endFill=0;curved=1;strokeColor=default;metaEdit=0;disableMultiStroke=0;startFill=1;exitX=0;exitY=0.5;exitDx=0;exitDy=0;" parent="1" source="VLHIMrBtYk3J3vSGHkTV-5" edge="1">
          <mxGeometry width="50" height="50" relative="1" as="geometry">
            <mxPoint x="490" y="120" as="sourcePoint" />
            <mxPoint x="500" y="110" as="targetPoint" />
          </mxGeometry>
        </mxCell>
        <mxCell id="NPRbbqzTrsGP8xS9bHB--8" value="" style="endArrow=none;html=1;sketch=1;hachureGap=4;jiggle=1;disableMultiStroke=0;fontFamily=Gloria Hallelujah;fontSource=https%3A%2F%2Ffonts.googleapis.com%2Fcss%3Ffamily%3DGloria%2BHallelujah;fontSize=16;sourcePerimeterSpacing=8;targetPerimeterSpacing=8;strokeColor=default;strokeWidth=1;curved=1;" parent="1" edge="1">
          <mxGeometry width="50" height="50" relative="1" as="geometry">
            <mxPoint x="485" y="141" as="sourcePoint" />
            <mxPoint x="485" y="81" as="targetPoint" />
            <Array as="points">
              <mxPoint x="478" y="125" />
              <mxPoint x="493" y="95" />
            </Array>
          </mxGeometry>
        </mxCell>
        <mxCell id="NPRbbqzTrsGP8xS9bHB--9" value="" style="endArrow=none;html=1;sketch=1;hachureGap=4;jiggle=1;disableMultiStroke=0;fontFamily=Gloria Hallelujah;fontSource=https%3A%2F%2Ffonts.googleapis.com%2Fcss%3Ffamily%3DGloria%2BHallelujah;fontSize=16;sourcePerimeterSpacing=8;targetPerimeterSpacing=8;strokeColor=default;strokeWidth=1;curved=1;" parent="1" edge="1">
          <mxGeometry width="50" height="50" relative="1" as="geometry">
            <mxPoint x="500" y="141" as="sourcePoint" />
            <mxPoint x="500" y="81" as="targetPoint" />
            <Array as="points">
              <mxPoint x="493" y="125" />
              <mxPoint x="508" y="95" />
            </Array>
          </mxGeometry>
        </mxCell>
      </root>
    </mxGraphModel>
  </diagram>
  <diagram id="1heqYugbOR7fx1SHDa8x" name="block_tree">
    <mxGraphModel dx="2074" dy="1093" grid="1" gridSize="10" guides="1" tooltips="1" connect="1" arrows="1" fold="1" page="1" pageScale="1" pageWidth="850" pageHeight="1100" math="0" shadow="0">
      <root>
        <mxCell id="0" />
        <mxCell id="1" parent="0" />
        <mxCell id="9dDPcx8fG81m2TWgUdLZ-1" value="&lt;font data-font-src=&quot;https://fonts.googleapis.com/css?family=Gloria+Hallelujah&quot; face=&quot;Gloria Hallelujah&quot;&gt;Block A&lt;br&gt;&lt;/font&gt;" style="rounded=1;whiteSpace=wrap;html=1;sketch=1;hachureGap=4;fontFamily=Architects Daughter;fontSource=https%3A%2F%2Ffonts.googleapis.com%2Fcss%3Ffamily%3DArchitects%2BDaughter;fontSize=20;fillColor=none;" parent="1" vertex="1">
          <mxGeometry x="80" y="170" width="110" height="60" as="geometry" />
        </mxCell>
        <mxCell id="9dDPcx8fG81m2TWgUdLZ-2" value="&lt;font data-font-src=&quot;https://fonts.googleapis.com/css?family=Gloria+Hallelujah&quot; face=&quot;Gloria Hallelujah&quot;&gt;Block B&lt;br&gt;&lt;/font&gt;" style="rounded=1;whiteSpace=wrap;html=1;sketch=1;hachureGap=4;fontFamily=Architects Daughter;fontSource=https%3A%2F%2Ffonts.googleapis.com%2Fcss%3Ffamily%3DArchitects%2BDaughter;fontSize=20;fillColor=none;" parent="1" vertex="1">
          <mxGeometry x="230" y="241" width="110" height="60" as="geometry" />
        </mxCell>
        <mxCell id="9dDPcx8fG81m2TWgUdLZ-3" value="&lt;font data-font-src=&quot;https://fonts.googleapis.com/css?family=Gloria+Hallelujah&quot; face=&quot;Gloria Hallelujah&quot;&gt;Block C&lt;/font&gt;" style="rounded=1;whiteSpace=wrap;html=1;sketch=1;hachureGap=4;fontFamily=Architects Daughter;fontSource=https%3A%2F%2Ffonts.googleapis.com%2Fcss%3Ffamily%3DArchitects%2BDaughter;fontSize=20;fillColor=none;" parent="1" vertex="1">
          <mxGeometry x="380" y="110" width="110" height="60" as="geometry" />
        </mxCell>
        <mxCell id="9dDPcx8fG81m2TWgUdLZ-4" value="&lt;font data-font-src=&quot;https://fonts.googleapis.com/css?family=Gloria+Hallelujah&quot; face=&quot;Gloria Hallelujah&quot;&gt;Block D&lt;br&gt;&lt;/font&gt;" style="rounded=1;whiteSpace=wrap;html=1;sketch=1;hachureGap=4;fontFamily=Architects Daughter;fontSource=https%3A%2F%2Ffonts.googleapis.com%2Fcss%3Ffamily%3DArchitects%2BDaughter;fontSize=20;fillColor=none;" parent="1" vertex="1">
          <mxGeometry x="530" y="200" width="110" height="60" as="geometry" />
        </mxCell>
        <mxCell id="9dDPcx8fG81m2TWgUdLZ-5" value="&lt;font data-font-src=&quot;https://fonts.googleapis.com/css?family=Gloria+Hallelujah&quot; face=&quot;Gloria Hallelujah&quot;&gt;Block E&lt;br&gt;&lt;/font&gt;" style="rounded=1;whiteSpace=wrap;html=1;sketch=1;hachureGap=4;fontFamily=Architects Daughter;fontSource=https%3A%2F%2Ffonts.googleapis.com%2Fcss%3Ffamily%3DArchitects%2BDaughter;fontSize=20;fillColor=none;" parent="1" vertex="1">
          <mxGeometry x="680" y="290" width="110" height="60" as="geometry" />
        </mxCell>
        <mxCell id="nmfGZcjmUFGCk838QM5b-1" value="" style="endArrow=classicThin;html=1;sketch=1;hachureGap=2;fontFamily=Gloria Hallelujah;fontSource=https%3A%2F%2Ffonts.googleapis.com%2Fcss%3Ffamily%3DGloria%2BHallelujah;fontSize=16;startSize=14;endSize=14;sourcePerimeterSpacing=8;targetPerimeterSpacing=8;entryX=1;entryY=0.5;entryDx=0;entryDy=0;exitX=0;exitY=0.5;exitDx=0;exitDy=0;endFill=0;curved=1;strokeColor=default;metaEdit=0;disableMultiStroke=0;startFill=1;" parent="1" source="9dDPcx8fG81m2TWgUdLZ-3" target="9dDPcx8fG81m2TWgUdLZ-1" edge="1">
          <mxGeometry width="50" height="50" relative="1" as="geometry">
            <mxPoint x="190" y="110" as="sourcePoint" />
            <mxPoint x="150" y="110" as="targetPoint" />
          </mxGeometry>
        </mxCell>
        <mxCell id="nmfGZcjmUFGCk838QM5b-2" value="" style="endArrow=classicThin;html=1;sketch=1;hachureGap=2;fontFamily=Gloria Hallelujah;fontSource=https%3A%2F%2Ffonts.googleapis.com%2Fcss%3Ffamily%3DGloria%2BHallelujah;fontSize=16;startSize=14;endSize=14;sourcePerimeterSpacing=8;targetPerimeterSpacing=8;entryX=1;entryY=0.5;entryDx=0;entryDy=0;exitX=0;exitY=0.5;exitDx=0;exitDy=0;endFill=0;curved=1;strokeColor=default;metaEdit=0;disableMultiStroke=0;startFill=1;" parent="1" source="9dDPcx8fG81m2TWgUdLZ-2" target="9dDPcx8fG81m2TWgUdLZ-1" edge="1">
          <mxGeometry width="50" height="50" relative="1" as="geometry">
            <mxPoint x="390" y="150" as="sourcePoint" />
            <mxPoint x="200" y="210" as="targetPoint" />
          </mxGeometry>
        </mxCell>
        <mxCell id="nmfGZcjmUFGCk838QM5b-3" value="" style="endArrow=classicThin;html=1;sketch=1;hachureGap=2;fontFamily=Gloria Hallelujah;fontSource=https%3A%2F%2Ffonts.googleapis.com%2Fcss%3Ffamily%3DGloria%2BHallelujah;fontSize=16;startSize=14;endSize=14;sourcePerimeterSpacing=8;targetPerimeterSpacing=8;entryX=1;entryY=0.5;entryDx=0;entryDy=0;exitX=0;exitY=0.5;exitDx=0;exitDy=0;endFill=0;curved=1;strokeColor=default;metaEdit=0;disableMultiStroke=0;startFill=1;" parent="1" source="9dDPcx8fG81m2TWgUdLZ-4" target="9dDPcx8fG81m2TWgUdLZ-2" edge="1">
          <mxGeometry width="50" height="50" relative="1" as="geometry">
            <mxPoint x="240" y="281" as="sourcePoint" />
            <mxPoint x="200" y="210" as="targetPoint" />
          </mxGeometry>
        </mxCell>
        <mxCell id="nmfGZcjmUFGCk838QM5b-4" value="" style="endArrow=classicThin;html=1;sketch=1;hachureGap=2;fontFamily=Gloria Hallelujah;fontSource=https%3A%2F%2Ffonts.googleapis.com%2Fcss%3Ffamily%3DGloria%2BHallelujah;fontSize=16;startSize=14;endSize=14;sourcePerimeterSpacing=8;targetPerimeterSpacing=8;exitX=0;exitY=0.5;exitDx=0;exitDy=0;endFill=0;curved=1;strokeColor=default;metaEdit=0;disableMultiStroke=0;startFill=1;" parent="1" source="9dDPcx8fG81m2TWgUdLZ-5" edge="1">
          <mxGeometry width="50" height="50" relative="1" as="geometry">
            <mxPoint x="250" y="291" as="sourcePoint" />
            <mxPoint x="340" y="270" as="targetPoint" />
          </mxGeometry>
        </mxCell>
        <mxCell id="nmfGZcjmUFGCk838QM5b-5" value="&lt;font data-font-src=&quot;https://fonts.googleapis.com/css?family=Gloria+Hallelujah&quot; face=&quot;Gloria Hallelujah&quot;&gt;Block F&lt;br&gt;&lt;/font&gt;" style="rounded=1;whiteSpace=wrap;html=1;sketch=1;hachureGap=4;fontFamily=Architects Daughter;fontSource=https%3A%2F%2Ffonts.googleapis.com%2Fcss%3Ffamily%3DArchitects%2BDaughter;fontSize=20;fillColor=none;" parent="1" vertex="1">
          <mxGeometry x="830" y="200" width="110" height="60" as="geometry" />
        </mxCell>
        <mxCell id="nmfGZcjmUFGCk838QM5b-6" value="" style="endArrow=classicThin;html=1;sketch=1;hachureGap=2;fontFamily=Gloria Hallelujah;fontSource=https%3A%2F%2Ffonts.googleapis.com%2Fcss%3Ffamily%3DGloria%2BHallelujah;fontSize=16;startSize=14;endSize=14;sourcePerimeterSpacing=8;targetPerimeterSpacing=8;entryX=1;entryY=0.5;entryDx=0;entryDy=0;exitX=0;exitY=0.5;exitDx=0;exitDy=0;endFill=0;curved=1;strokeColor=default;metaEdit=0;disableMultiStroke=0;startFill=1;" parent="1" source="nmfGZcjmUFGCk838QM5b-5" target="9dDPcx8fG81m2TWgUdLZ-4" edge="1">
          <mxGeometry width="50" height="50" relative="1" as="geometry">
            <mxPoint x="540" y="240" as="sourcePoint" />
            <mxPoint x="350" y="281" as="targetPoint" />
          </mxGeometry>
        </mxCell>
      </root>
    </mxGraphModel>
  </diagram>
  <diagram name="block_tree_resolved" id="tsNsh56INHrrU9oGqfnp">
    <mxGraphModel dx="2074" dy="1093" grid="1" gridSize="10" guides="1" tooltips="1" connect="1" arrows="1" fold="1" page="1" pageScale="1" pageWidth="850" pageHeight="1100" math="0" shadow="0">
      <root>
        <mxCell id="PgmLvf2wmEe-h0lJ6J2Q-0" />
        <mxCell id="PgmLvf2wmEe-h0lJ6J2Q-1" parent="PgmLvf2wmEe-h0lJ6J2Q-0" />
        <mxCell id="PgmLvf2wmEe-h0lJ6J2Q-2" value="&lt;font data-font-src=&quot;https://fonts.googleapis.com/css?family=Gloria+Hallelujah&quot; face=&quot;Gloria Hallelujah&quot;&gt;Block A&lt;br&gt;&lt;/font&gt;" style="rounded=1;whiteSpace=wrap;html=1;sketch=1;hachureGap=4;fontFamily=Architects Daughter;fontSource=https%3A%2F%2Ffonts.googleapis.com%2Fcss%3Ffamily%3DArchitects%2BDaughter;fontSize=20;fillColor=#000000;" parent="PgmLvf2wmEe-h0lJ6J2Q-1" vertex="1">
          <mxGeometry x="80" y="170" width="110" height="60" as="geometry" />
        </mxCell>
        <mxCell id="PgmLvf2wmEe-h0lJ6J2Q-3" value="&lt;font data-font-src=&quot;https://fonts.googleapis.com/css?family=Gloria+Hallelujah&quot; face=&quot;Gloria Hallelujah&quot;&gt;Block B&lt;br&gt;&lt;/font&gt;" style="rounded=1;whiteSpace=wrap;html=1;sketch=1;hachureGap=4;fontFamily=Architects Daughter;fontSource=https%3A%2F%2Ffonts.googleapis.com%2Fcss%3Ffamily%3DArchitects%2BDaughter;fontSize=20;fillColor=#000000;fillStyle=hachure;" parent="PgmLvf2wmEe-h0lJ6J2Q-1" vertex="1">
          <mxGeometry x="230" y="241" width="110" height="60" as="geometry" />
        </mxCell>
        <mxCell id="PgmLvf2wmEe-h0lJ6J2Q-4" value="&lt;font data-font-src=&quot;https://fonts.googleapis.com/css?family=Gloria+Hallelujah&quot; face=&quot;Gloria Hallelujah&quot;&gt;Block C&lt;/font&gt;" style="rounded=1;whiteSpace=wrap;html=1;sketch=1;hachureGap=4;fontFamily=Architects Daughter;fontSource=https%3A%2F%2Ffonts.googleapis.com%2Fcss%3Ffamily%3DArchitects%2BDaughter;fontSize=20;dashed=1;fillColor=none;" parent="PgmLvf2wmEe-h0lJ6J2Q-1" vertex="1">
          <mxGeometry x="380" y="110" width="110" height="60" as="geometry" />
        </mxCell>
        <mxCell id="PgmLvf2wmEe-h0lJ6J2Q-5" value="&lt;font data-font-src=&quot;https://fonts.googleapis.com/css?family=Gloria+Hallelujah&quot; face=&quot;Gloria Hallelujah&quot;&gt;Block D&lt;br&gt;&lt;/font&gt;" style="rounded=1;whiteSpace=wrap;html=1;sketch=1;hachureGap=4;fontFamily=Architects Daughter;fontSource=https%3A%2F%2Ffonts.googleapis.com%2Fcss%3Ffamily%3DArchitects%2BDaughter;fontSize=20;fillColor=#000000;fillStyle=hachure;" parent="PgmLvf2wmEe-h0lJ6J2Q-1" vertex="1">
          <mxGeometry x="530" y="200" width="110" height="60" as="geometry" />
        </mxCell>
        <mxCell id="PgmLvf2wmEe-h0lJ6J2Q-6" value="&lt;font data-font-src=&quot;https://fonts.googleapis.com/css?family=Gloria+Hallelujah&quot; face=&quot;Gloria Hallelujah&quot;&gt;Block E&lt;br&gt;&lt;/font&gt;" style="rounded=1;whiteSpace=wrap;html=1;sketch=1;hachureGap=4;fontFamily=Architects Daughter;fontSource=https%3A%2F%2Ffonts.googleapis.com%2Fcss%3Ffamily%3DArchitects%2BDaughter;fontSize=20;dashed=1;fillColor=none;" parent="PgmLvf2wmEe-h0lJ6J2Q-1" vertex="1">
          <mxGeometry x="680" y="290" width="110" height="60" as="geometry" />
        </mxCell>
        <mxCell id="PgmLvf2wmEe-h0lJ6J2Q-7" value="" style="endArrow=classicThin;html=1;sketch=1;hachureGap=2;fontFamily=Gloria Hallelujah;fontSource=https%3A%2F%2Ffonts.googleapis.com%2Fcss%3Ffamily%3DGloria%2BHallelujah;fontSize=16;startSize=14;endSize=14;sourcePerimeterSpacing=8;targetPerimeterSpacing=8;entryX=1;entryY=0.5;entryDx=0;entryDy=0;exitX=0;exitY=0.5;exitDx=0;exitDy=0;endFill=0;curved=1;strokeColor=default;metaEdit=0;disableMultiStroke=0;startFill=1;dashed=1;" parent="PgmLvf2wmEe-h0lJ6J2Q-1" source="PgmLvf2wmEe-h0lJ6J2Q-4" target="PgmLvf2wmEe-h0lJ6J2Q-2" edge="1">
          <mxGeometry width="50" height="50" relative="1" as="geometry">
            <mxPoint x="190" y="110" as="sourcePoint" />
            <mxPoint x="150" y="110" as="targetPoint" />
          </mxGeometry>
        </mxCell>
        <mxCell id="PgmLvf2wmEe-h0lJ6J2Q-8" value="" style="endArrow=classicThin;html=1;sketch=1;hachureGap=2;fontFamily=Gloria Hallelujah;fontSource=https%3A%2F%2Ffonts.googleapis.com%2Fcss%3Ffamily%3DGloria%2BHallelujah;fontSize=16;startSize=14;endSize=14;sourcePerimeterSpacing=8;targetPerimeterSpacing=8;entryX=1;entryY=0.5;entryDx=0;entryDy=0;exitX=0;exitY=0.5;exitDx=0;exitDy=0;endFill=0;curved=1;strokeColor=default;metaEdit=0;disableMultiStroke=0;startFill=1;" parent="PgmLvf2wmEe-h0lJ6J2Q-1" source="PgmLvf2wmEe-h0lJ6J2Q-3" target="PgmLvf2wmEe-h0lJ6J2Q-2" edge="1">
          <mxGeometry width="50" height="50" relative="1" as="geometry">
            <mxPoint x="390" y="150" as="sourcePoint" />
            <mxPoint x="200" y="210" as="targetPoint" />
          </mxGeometry>
        </mxCell>
        <mxCell id="PgmLvf2wmEe-h0lJ6J2Q-9" value="" style="endArrow=classicThin;html=1;sketch=1;hachureGap=2;fontFamily=Gloria Hallelujah;fontSource=https%3A%2F%2Ffonts.googleapis.com%2Fcss%3Ffamily%3DGloria%2BHallelujah;fontSize=16;startSize=14;endSize=14;sourcePerimeterSpacing=8;targetPerimeterSpacing=8;entryX=1;entryY=0.5;entryDx=0;entryDy=0;exitX=0;exitY=0.5;exitDx=0;exitDy=0;endFill=0;curved=1;strokeColor=default;metaEdit=0;disableMultiStroke=0;startFill=1;" parent="PgmLvf2wmEe-h0lJ6J2Q-1" source="PgmLvf2wmEe-h0lJ6J2Q-5" target="PgmLvf2wmEe-h0lJ6J2Q-3" edge="1">
          <mxGeometry width="50" height="50" relative="1" as="geometry">
            <mxPoint x="240" y="281" as="sourcePoint" />
            <mxPoint x="200" y="210" as="targetPoint" />
          </mxGeometry>
        </mxCell>
        <mxCell id="PgmLvf2wmEe-h0lJ6J2Q-10" value="" style="endArrow=classicThin;html=1;sketch=1;hachureGap=2;fontFamily=Gloria Hallelujah;fontSource=https%3A%2F%2Ffonts.googleapis.com%2Fcss%3Ffamily%3DGloria%2BHallelujah;fontSize=16;startSize=14;endSize=14;sourcePerimeterSpacing=8;targetPerimeterSpacing=8;exitX=0;exitY=0.5;exitDx=0;exitDy=0;endFill=0;curved=1;strokeColor=default;metaEdit=0;disableMultiStroke=0;startFill=1;dashed=1;" parent="PgmLvf2wmEe-h0lJ6J2Q-1" source="PgmLvf2wmEe-h0lJ6J2Q-6" edge="1">
          <mxGeometry width="50" height="50" relative="1" as="geometry">
            <mxPoint x="250" y="291" as="sourcePoint" />
            <mxPoint x="340" y="270" as="targetPoint" />
          </mxGeometry>
        </mxCell>
        <mxCell id="PgmLvf2wmEe-h0lJ6J2Q-11" value="&lt;font data-font-src=&quot;https://fonts.googleapis.com/css?family=Gloria+Hallelujah&quot; face=&quot;Gloria Hallelujah&quot;&gt;Block F&lt;br&gt;&lt;/font&gt;" style="rounded=1;whiteSpace=wrap;html=1;sketch=1;hachureGap=4;fontFamily=Architects Daughter;fontSource=https%3A%2F%2Ffonts.googleapis.com%2Fcss%3Ffamily%3DArchitects%2BDaughter;fontSize=20;fillColor=#000000;fillStyle=hachure;" parent="PgmLvf2wmEe-h0lJ6J2Q-1" vertex="1">
          <mxGeometry x="830" y="200" width="110" height="60" as="geometry" />
        </mxCell>
        <mxCell id="PgmLvf2wmEe-h0lJ6J2Q-12" value="" style="endArrow=classicThin;html=1;sketch=1;hachureGap=2;fontFamily=Gloria Hallelujah;fontSource=https%3A%2F%2Ffonts.googleapis.com%2Fcss%3Ffamily%3DGloria%2BHallelujah;fontSize=16;startSize=14;endSize=14;sourcePerimeterSpacing=8;targetPerimeterSpacing=8;entryX=1;entryY=0.5;entryDx=0;entryDy=0;exitX=0;exitY=0.5;exitDx=0;exitDy=0;endFill=0;curved=1;strokeColor=default;metaEdit=0;disableMultiStroke=0;startFill=1;" parent="PgmLvf2wmEe-h0lJ6J2Q-1" source="PgmLvf2wmEe-h0lJ6J2Q-11" target="PgmLvf2wmEe-h0lJ6J2Q-5" edge="1">
          <mxGeometry width="50" height="50" relative="1" as="geometry">
            <mxPoint x="540" y="240" as="sourcePoint" />
            <mxPoint x="350" y="281" as="targetPoint" />
          </mxGeometry>
        </mxCell>
        <mxCell id="0ZdUYTIzbsZaXdyXQfFS-0" value="Head block" style="text;html=1;strokeColor=none;fillColor=none;align=center;verticalAlign=middle;whiteSpace=wrap;rounded=0;dashed=1;sketch=1;hachureGap=4;fillStyle=hachure;fontFamily=Gloria Hallelujah;fontSource=https%3A%2F%2Ffonts.googleapis.com%2Fcss%3Ffamily%3DGloria%2BHallelujah;fontSize=20;" parent="PgmLvf2wmEe-h0lJ6J2Q-1" vertex="1">
          <mxGeometry x="822.5" y="164" width="125" height="30" as="geometry" />
        </mxCell>
      </root>
    </mxGraphModel>
  </diagram>
  <diagram id="NJaGgVnQg7r9FIgEdA3C" name="partition">
    <mxGraphModel dx="2074" dy="1093" grid="1" gridSize="10" guides="1" tooltips="1" connect="1" arrows="1" fold="1" page="1" pageScale="1" pageWidth="850" pageHeight="1100" math="0" shadow="0">
      <root>
        <mxCell id="0" />
        <mxCell id="1" parent="0" />
        <mxCell id="_HJAgRzO269z1ja4Z7QZ-2" value="" style="shape=umlActor;verticalLabelPosition=bottom;verticalAlign=top;html=1;outlineConnect=0;sketch=1;fillColor=none;" parent="1" vertex="1">
          <mxGeometry x="228" y="110" width="35" height="70" as="geometry" />
        </mxCell>
        <mxCell id="_HJAgRzO269z1ja4Z7QZ-3" value="" style="shape=umlActor;verticalLabelPosition=bottom;verticalAlign=top;html=1;outlineConnect=0;sketch=1;fillColor=none;" parent="1" vertex="1">
          <mxGeometry x="310" y="150" width="35" height="70" as="geometry" />
        </mxCell>
        <mxCell id="_HJAgRzO269z1ja4Z7QZ-4" value="" style="shape=umlActor;verticalLabelPosition=bottom;verticalAlign=top;html=1;outlineConnect=0;sketch=1;fillColor=none;" parent="1" vertex="1">
          <mxGeometry x="150" y="200" width="35" height="70" as="geometry" />
        </mxCell>
        <mxCell id="_HJAgRzO269z1ja4Z7QZ-5" value="" style="shape=umlActor;verticalLabelPosition=bottom;verticalAlign=top;html=1;outlineConnect=0;sketch=1;fillColor=none;" parent="1" vertex="1">
          <mxGeometry x="220" y="260" width="35" height="70" as="geometry" />
        </mxCell>
        <mxCell id="_HJAgRzO269z1ja4Z7QZ-6" value="" style="shape=umlActor;verticalLabelPosition=bottom;verticalAlign=top;html=1;outlineConnect=0;sketch=1;fillColor=none;" parent="1" vertex="1">
          <mxGeometry x="300" y="270" width="35" height="70" as="geometry" />
        </mxCell>
        <mxCell id="_HJAgRzO269z1ja4Z7QZ-7" value="" style="shape=umlActor;verticalLabelPosition=bottom;verticalAlign=top;html=1;outlineConnect=0;sketch=1;fillColor=none;" parent="1" vertex="1">
          <mxGeometry x="404" y="120" width="35" height="70" as="geometry" />
        </mxCell>
        <mxCell id="_HJAgRzO269z1ja4Z7QZ-8" value="" style="shape=umlActor;verticalLabelPosition=bottom;verticalAlign=top;html=1;outlineConnect=0;sketch=1;fillColor=none;" parent="1" vertex="1">
          <mxGeometry x="511" y="140" width="35" height="70" as="geometry" />
        </mxCell>
        <mxCell id="_HJAgRzO269z1ja4Z7QZ-9" value="" style="shape=umlActor;verticalLabelPosition=bottom;verticalAlign=top;html=1;outlineConnect=0;sketch=1;fillColor=none;" parent="1" vertex="1">
          <mxGeometry x="396" y="260" width="35" height="70" as="geometry" />
        </mxCell>
        <mxCell id="_HJAgRzO269z1ja4Z7QZ-10" value="" style="shape=umlActor;verticalLabelPosition=bottom;verticalAlign=top;html=1;outlineConnect=0;sketch=1;fillColor=none;" parent="1" vertex="1">
          <mxGeometry x="496" y="240" width="35" height="70" as="geometry" />
        </mxCell>
        <mxCell id="_HJAgRzO269z1ja4Z7QZ-14" value="" style="endArrow=classic;startArrow=classic;html=1;rounded=0;entryX=0;entryY=0.3333333333333333;entryDx=0;entryDy=0;entryPerimeter=0;sketch=1;" parent="1" target="_HJAgRzO269z1ja4Z7QZ-3" edge="1">
          <mxGeometry width="50" height="50" relative="1" as="geometry">
            <mxPoint x="250" y="250" as="sourcePoint" />
            <mxPoint x="450" y="540" as="targetPoint" />
          </mxGeometry>
        </mxCell>
        <mxCell id="_HJAgRzO269z1ja4Z7QZ-19" value="" style="endArrow=classic;startArrow=classic;html=1;rounded=0;sketch=1;" parent="1" edge="1">
          <mxGeometry width="50" height="50" relative="1" as="geometry">
            <mxPoint x="300" y="160" as="sourcePoint" />
            <mxPoint x="190" y="200" as="targetPoint" />
          </mxGeometry>
        </mxCell>
        <mxCell id="_HJAgRzO269z1ja4Z7QZ-20" value="" style="endArrow=classic;startArrow=classic;html=1;rounded=0;sketch=1;" parent="1" edge="1">
          <mxGeometry width="50" height="50" relative="1" as="geometry">
            <mxPoint x="260" y="270" as="sourcePoint" />
            <mxPoint x="300" y="280" as="targetPoint" />
          </mxGeometry>
        </mxCell>
        <mxCell id="_HJAgRzO269z1ja4Z7QZ-21" value="" style="endArrow=classic;startArrow=classic;html=1;rounded=0;sketch=1;" parent="1" edge="1">
          <mxGeometry width="50" height="50" relative="1" as="geometry">
            <mxPoint x="180" y="210" as="sourcePoint" />
            <mxPoint x="220" y="260" as="targetPoint" />
          </mxGeometry>
        </mxCell>
        <mxCell id="_HJAgRzO269z1ja4Z7QZ-22" value="" style="endArrow=classic;startArrow=classic;html=1;rounded=0;sketch=1;" parent="1" edge="1">
          <mxGeometry width="50" height="50" relative="1" as="geometry">
            <mxPoint x="260" y="120" as="sourcePoint" />
            <mxPoint x="310" y="150" as="targetPoint" />
          </mxGeometry>
        </mxCell>
        <mxCell id="_HJAgRzO269z1ja4Z7QZ-24" value="" style="endArrow=classic;startArrow=classic;html=1;rounded=0;entryX=0.057;entryY=0.143;entryDx=0;entryDy=0;entryPerimeter=0;sketch=1;" parent="1" target="_HJAgRzO269z1ja4Z7QZ-2" edge="1">
          <mxGeometry width="50" height="50" relative="1" as="geometry">
            <mxPoint x="180" y="190" as="sourcePoint" />
            <mxPoint x="360" y="223.33333333333326" as="targetPoint" />
          </mxGeometry>
        </mxCell>
        <mxCell id="_HJAgRzO269z1ja4Z7QZ-25" value="" style="endArrow=classic;startArrow=classic;html=1;rounded=0;sketch=1;" parent="1" edge="1">
          <mxGeometry width="50" height="50" relative="1" as="geometry">
            <mxPoint x="432" y="266" as="sourcePoint" />
            <mxPoint x="496" y="250" as="targetPoint" />
          </mxGeometry>
        </mxCell>
        <mxCell id="_HJAgRzO269z1ja4Z7QZ-26" value="" style="endArrow=classic;startArrow=classic;html=1;rounded=0;sketch=1;" parent="1" edge="1">
          <mxGeometry width="50" height="50" relative="1" as="geometry">
            <mxPoint x="428" y="254" as="sourcePoint" />
            <mxPoint x="513" y="152" as="targetPoint" />
          </mxGeometry>
        </mxCell>
        <mxCell id="_HJAgRzO269z1ja4Z7QZ-27" value="" style="endArrow=classic;startArrow=classic;html=1;rounded=0;sketch=1;" parent="1" edge="1">
          <mxGeometry width="50" height="50" relative="1" as="geometry">
            <mxPoint x="503" y="237" as="sourcePoint" />
            <mxPoint x="516" y="161" as="targetPoint" />
          </mxGeometry>
        </mxCell>
        <mxCell id="_HJAgRzO269z1ja4Z7QZ-28" value="" style="endArrow=classic;startArrow=classic;html=1;rounded=0;sketch=1;" parent="1" edge="1">
          <mxGeometry width="50" height="50" relative="1" as="geometry">
            <mxPoint x="435" y="132" as="sourcePoint" />
            <mxPoint x="512" y="145" as="targetPoint" />
          </mxGeometry>
        </mxCell>
        <mxCell id="_HJAgRzO269z1ja4Z7QZ-29" value="&lt;font style=&quot;font-size: 24px;&quot; data-font-src=&quot;https://fonts.googleapis.com/css?family=Gloria+Hallelujah&quot; face=&quot;Gloria Hallelujah&quot;&gt;A&lt;/font&gt;" style="text;html=1;strokeColor=none;fillColor=none;align=center;verticalAlign=middle;whiteSpace=wrap;rounded=0;sketch=1;" parent="1" vertex="1">
          <mxGeometry x="137.5" y="300" width="60" height="30" as="geometry" />
        </mxCell>
        <mxCell id="_HJAgRzO269z1ja4Z7QZ-30" value="&lt;font data-font-src=&quot;https://fonts.googleapis.com/css?family=Gloria+Hallelujah&quot; style=&quot;font-size: 24px;&quot; face=&quot;Gloria Hallelujah&quot;&gt;B&lt;/font&gt;" style="text;html=1;strokeColor=none;fillColor=none;align=center;verticalAlign=middle;whiteSpace=wrap;rounded=0;sketch=1;" parent="1" vertex="1">
          <mxGeometry x="436" y="300" width="60" height="30" as="geometry" />
        </mxCell>
      </root>
    </mxGraphModel>
  </diagram>
  <diagram id="Yhyrekc2T5ZxLAi_g-uG" name="messages">
    <mxGraphModel dx="2074" dy="1093" grid="1" gridSize="10" guides="1" tooltips="1" connect="1" arrows="1" fold="1" page="1" pageScale="1" pageWidth="850" pageHeight="1100" math="0" shadow="0">
      <root>
        <mxCell id="0" />
        <mxCell id="1" parent="0" />
        <mxCell id="XtUsA7nuZUFyV0uhwQHY-1" value="" style="shape=umlActor;verticalLabelPosition=bottom;verticalAlign=top;html=1;outlineConnect=0;sketch=1;fillColor=none;" parent="1" vertex="1">
          <mxGeometry x="370" y="150" width="50" height="100" as="geometry" />
        </mxCell>
        <mxCell id="7tBgsRe7ZBgyQxo0UYUK-4" value="" style="endArrow=classic;html=1;rounded=0;sketch=1;" parent="1" edge="1">
          <mxGeometry relative="1" as="geometry">
            <mxPoint x="240" y="227" as="sourcePoint" />
            <mxPoint x="360" y="210" as="targetPoint" />
          </mxGeometry>
        </mxCell>
        <mxCell id="7tBgsRe7ZBgyQxo0UYUK-5" value="&lt;font data-font-src=&quot;https://fonts.googleapis.com/css?family=Gloria+Hallelujah&quot; style=&quot;font-size: 20px;&quot; face=&quot;Gloria Hallelujah&quot;&gt;?&lt;/font&gt;" style="edgeLabel;resizable=0;html=1;align=center;verticalAlign=middle;sketch=1;perimeter=none;" parent="7tBgsRe7ZBgyQxo0UYUK-4" connectable="0" vertex="1">
          <mxGeometry relative="1" as="geometry" />
        </mxCell>
        <mxCell id="7tBgsRe7ZBgyQxo0UYUK-6" value="" style="endArrow=classic;html=1;rounded=0;sketch=1;" parent="1" edge="1">
          <mxGeometry relative="1" as="geometry">
            <mxPoint x="230" y="187" as="sourcePoint" />
            <mxPoint x="350" y="197" as="targetPoint" />
          </mxGeometry>
        </mxCell>
        <mxCell id="7tBgsRe7ZBgyQxo0UYUK-7" value="&lt;font data-font-src=&quot;https://fonts.googleapis.com/css?family=Gloria+Hallelujah&quot; style=&quot;font-size: 20px;&quot; face=&quot;Gloria Hallelujah&quot;&gt;?&lt;/font&gt;" style="edgeLabel;resizable=0;html=1;align=center;verticalAlign=middle;sketch=1;perimeter=none;" parent="7tBgsRe7ZBgyQxo0UYUK-6" connectable="0" vertex="1">
          <mxGeometry relative="1" as="geometry" />
        </mxCell>
        <mxCell id="7tBgsRe7ZBgyQxo0UYUK-8" value="" style="endArrow=classic;html=1;rounded=0;sketch=1;" parent="1" edge="1">
          <mxGeometry relative="1" as="geometry">
            <mxPoint x="240" y="157" as="sourcePoint" />
            <mxPoint x="350" y="177" as="targetPoint" />
          </mxGeometry>
        </mxCell>
        <mxCell id="7tBgsRe7ZBgyQxo0UYUK-9" value="&lt;font data-font-src=&quot;https://fonts.googleapis.com/css?family=Gloria+Hallelujah&quot; style=&quot;font-size: 20px;&quot; face=&quot;Gloria Hallelujah&quot;&gt;?&lt;/font&gt;" style="edgeLabel;resizable=0;html=1;align=center;verticalAlign=middle;sketch=1;perimeter=none;" parent="7tBgsRe7ZBgyQxo0UYUK-8" connectable="0" vertex="1">
          <mxGeometry relative="1" as="geometry" />
        </mxCell>
        <mxCell id="7tBgsRe7ZBgyQxo0UYUK-10" value="" style="endArrow=classic;html=1;rounded=0;sketch=1;" parent="1" edge="1">
          <mxGeometry relative="1" as="geometry">
            <mxPoint x="540" y="140" as="sourcePoint" />
            <mxPoint x="430" y="160" as="targetPoint" />
          </mxGeometry>
        </mxCell>
        <mxCell id="7tBgsRe7ZBgyQxo0UYUK-11" value="&lt;font data-font-src=&quot;https://fonts.googleapis.com/css?family=Gloria+Hallelujah&quot; style=&quot;font-size: 20px;&quot; face=&quot;Gloria Hallelujah&quot;&gt;?&lt;/font&gt;" style="edgeLabel;resizable=0;html=1;align=center;verticalAlign=middle;sketch=1;perimeter=none;" parent="7tBgsRe7ZBgyQxo0UYUK-10" connectable="0" vertex="1">
          <mxGeometry relative="1" as="geometry" />
        </mxCell>
        <mxCell id="7tBgsRe7ZBgyQxo0UYUK-12" value="" style="endArrow=classic;html=1;rounded=0;sketch=1;" parent="1" edge="1">
          <mxGeometry relative="1" as="geometry">
            <mxPoint x="540" y="170" as="sourcePoint" />
            <mxPoint x="440" y="180" as="targetPoint" />
          </mxGeometry>
        </mxCell>
        <mxCell id="7tBgsRe7ZBgyQxo0UYUK-13" value="&lt;font data-font-src=&quot;https://fonts.googleapis.com/css?family=Gloria+Hallelujah&quot; style=&quot;font-size: 20px;&quot; face=&quot;Gloria Hallelujah&quot;&gt;?&lt;/font&gt;" style="edgeLabel;resizable=0;html=1;align=center;verticalAlign=middle;sketch=1;perimeter=none;" parent="7tBgsRe7ZBgyQxo0UYUK-12" connectable="0" vertex="1">
          <mxGeometry relative="1" as="geometry" />
        </mxCell>
        <mxCell id="7tBgsRe7ZBgyQxo0UYUK-14" value="" style="endArrow=classic;html=1;rounded=0;sketch=1;" parent="1" edge="1">
          <mxGeometry relative="1" as="geometry">
            <mxPoint x="540" y="200" as="sourcePoint" />
            <mxPoint x="440" y="200" as="targetPoint" />
          </mxGeometry>
        </mxCell>
        <mxCell id="7tBgsRe7ZBgyQxo0UYUK-15" value="&lt;font data-font-src=&quot;https://fonts.googleapis.com/css?family=Gloria+Hallelujah&quot; style=&quot;font-size: 20px;&quot; face=&quot;Gloria Hallelujah&quot;&gt;?&lt;/font&gt;" style="edgeLabel;resizable=0;html=1;align=center;verticalAlign=middle;sketch=1;perimeter=none;" parent="7tBgsRe7ZBgyQxo0UYUK-14" connectable="0" vertex="1">
          <mxGeometry relative="1" as="geometry" />
        </mxCell>
        <mxCell id="7tBgsRe7ZBgyQxo0UYUK-16" value="" style="endArrow=classic;html=1;rounded=0;sketch=1;" parent="1" edge="1">
          <mxGeometry relative="1" as="geometry">
            <mxPoint x="540" y="230" as="sourcePoint" />
            <mxPoint x="430" y="220" as="targetPoint" />
          </mxGeometry>
        </mxCell>
        <mxCell id="7tBgsRe7ZBgyQxo0UYUK-17" value="&lt;font data-font-src=&quot;https://fonts.googleapis.com/css?family=Gloria+Hallelujah&quot; style=&quot;font-size: 20px;&quot; face=&quot;Gloria Hallelujah&quot;&gt;?&lt;/font&gt;" style="edgeLabel;resizable=0;html=1;align=center;verticalAlign=middle;sketch=1;perimeter=none;" parent="7tBgsRe7ZBgyQxo0UYUK-16" connectable="0" vertex="1">
          <mxGeometry relative="1" as="geometry" />
        </mxCell>
        <mxCell id="7tBgsRe7ZBgyQxo0UYUK-18" value="" style="endArrow=classic;html=1;rounded=0;sketch=1;" parent="1" edge="1">
          <mxGeometry relative="1" as="geometry">
            <mxPoint x="260" y="127" as="sourcePoint" />
            <mxPoint x="360" y="167" as="targetPoint" />
          </mxGeometry>
        </mxCell>
        <mxCell id="7tBgsRe7ZBgyQxo0UYUK-19" value="&lt;font data-font-src=&quot;https://fonts.googleapis.com/css?family=Gloria+Hallelujah&quot; style=&quot;font-size: 20px;&quot; face=&quot;Gloria Hallelujah&quot;&gt;?&lt;/font&gt;" style="edgeLabel;resizable=0;html=1;align=center;verticalAlign=middle;sketch=1;perimeter=none;" parent="7tBgsRe7ZBgyQxo0UYUK-18" connectable="0" vertex="1">
          <mxGeometry relative="1" as="geometry" />
        </mxCell>
      </root>
    </mxGraphModel>
  </diagram>
  <diagram id="bM7impfsNPhaoKMYOlEO" name="finality">
    <mxGraphModel dx="2074" dy="1093" grid="1" gridSize="10" guides="1" tooltips="1" connect="1" arrows="1" fold="1" page="1" pageScale="1" pageWidth="850" pageHeight="1100" math="0" shadow="0">
      <root>
        <mxCell id="0" />
        <mxCell id="1" parent="0" />
        <mxCell id="WIYzFzr_MrQD7wktzNtW-1" value="" style="rounded=1;whiteSpace=wrap;html=1;sketch=1;hachureGap=4;fontFamily=Architects Daughter;fontSource=https%3A%2F%2Ffonts.googleapis.com%2Fcss%3Ffamily%3DArchitects%2BDaughter;fontSize=20;fillColor=#000000;fillStyle=cross-hatch;" parent="1" vertex="1">
          <mxGeometry x="40" y="170" width="60" height="60" as="geometry" />
        </mxCell>
        <mxCell id="WIYzFzr_MrQD7wktzNtW-3" value="" style="endArrow=classicThin;html=1;sketch=1;hachureGap=2;fontFamily=Gloria Hallelujah;fontSource=https%3A%2F%2Ffonts.googleapis.com%2Fcss%3Ffamily%3DGloria%2BHallelujah;fontSize=16;startSize=14;endSize=14;sourcePerimeterSpacing=8;targetPerimeterSpacing=8;entryX=1;entryY=0.5;entryDx=0;entryDy=0;endFill=0;curved=1;strokeColor=default;metaEdit=0;disableMultiStroke=0;startFill=1;" parent="1" target="WIYzFzr_MrQD7wktzNtW-1" edge="1">
          <mxGeometry width="50" height="50" relative="1" as="geometry">
            <mxPoint x="136" y="200" as="sourcePoint" />
            <mxPoint x="110" y="110" as="targetPoint" />
          </mxGeometry>
        </mxCell>
        <mxCell id="WIYzFzr_MrQD7wktzNtW-4" value="" style="rounded=1;whiteSpace=wrap;html=1;sketch=1;hachureGap=4;fontFamily=Architects Daughter;fontSource=https%3A%2F%2Ffonts.googleapis.com%2Fcss%3Ffamily%3DArchitects%2BDaughter;fontSize=20;fillColor=#000000;fillStyle=cross-hatch;" parent="1" vertex="1">
          <mxGeometry x="180" y="170" width="60" height="60" as="geometry" />
        </mxCell>
        <mxCell id="WIYzFzr_MrQD7wktzNtW-5" value="" style="rounded=1;whiteSpace=wrap;html=1;sketch=1;hachureGap=4;fontFamily=Architects Daughter;fontSource=https%3A%2F%2Ffonts.googleapis.com%2Fcss%3Ffamily%3DArchitects%2BDaughter;fontSize=20;fillColor=#000000;fillStyle=cross-hatch;" parent="1" vertex="1">
          <mxGeometry x="280" y="170" width="60" height="60" as="geometry" />
        </mxCell>
        <mxCell id="WIYzFzr_MrQD7wktzNtW-6" value="" style="rounded=1;whiteSpace=wrap;html=1;sketch=1;hachureGap=4;fontFamily=Architects Daughter;fontSource=https%3A%2F%2Ffonts.googleapis.com%2Fcss%3Ffamily%3DArchitects%2BDaughter;fontSize=20;fillColor=#000000;fillStyle=cross-hatch;" parent="1" vertex="1">
          <mxGeometry x="380" y="170" width="60" height="60" as="geometry" />
        </mxCell>
        <mxCell id="LThgHDOsHw4A7JoDxQi0-3" value="" style="group" parent="1" vertex="1" connectable="0">
          <mxGeometry x="130" y="183" width="24" height="30" as="geometry" />
        </mxCell>
        <mxCell id="LThgHDOsHw4A7JoDxQi0-1" value="" style="endArrow=none;html=1;sketch=1;hachureGap=4;jiggle=1;disableMultiStroke=0;fontFamily=Gloria Hallelujah;fontSource=https%3A%2F%2Ffonts.googleapis.com%2Fcss%3Ffamily%3DGloria%2BHallelujah;fontSize=16;sourcePerimeterSpacing=8;targetPerimeterSpacing=8;strokeColor=default;strokeWidth=1;curved=1;" parent="LThgHDOsHw4A7JoDxQi0-3" edge="1">
          <mxGeometry width="50" height="50" relative="1" as="geometry">
            <mxPoint x="7" y="46" as="sourcePoint" />
            <mxPoint x="7" y="-14" as="targetPoint" />
            <Array as="points">
              <mxPoint y="30" />
              <mxPoint x="15" />
            </Array>
          </mxGeometry>
        </mxCell>
        <mxCell id="LThgHDOsHw4A7JoDxQi0-2" value="" style="endArrow=none;html=1;sketch=1;hachureGap=4;jiggle=1;disableMultiStroke=0;fontFamily=Gloria Hallelujah;fontSource=https%3A%2F%2Ffonts.googleapis.com%2Fcss%3Ffamily%3DGloria%2BHallelujah;fontSize=16;sourcePerimeterSpacing=8;targetPerimeterSpacing=8;strokeColor=default;strokeWidth=1;curved=1;" parent="LThgHDOsHw4A7JoDxQi0-3" edge="1">
          <mxGeometry width="50" height="50" relative="1" as="geometry">
            <mxPoint x="16" y="46" as="sourcePoint" />
            <mxPoint x="16" y="-14" as="targetPoint" />
            <Array as="points">
              <mxPoint x="9" y="30" />
              <mxPoint x="24" />
            </Array>
          </mxGeometry>
        </mxCell>
        <mxCell id="LThgHDOsHw4A7JoDxQi0-6" value="" style="endArrow=classicThin;html=1;sketch=1;hachureGap=2;fontFamily=Gloria Hallelujah;fontSource=https%3A%2F%2Ffonts.googleapis.com%2Fcss%3Ffamily%3DGloria%2BHallelujah;fontSize=16;startSize=14;endSize=14;sourcePerimeterSpacing=8;targetPerimeterSpacing=8;entryX=1;entryY=0.5;entryDx=0;entryDy=0;endFill=0;curved=1;strokeColor=default;metaEdit=0;disableMultiStroke=0;startFill=1;" parent="1" edge="1">
          <mxGeometry width="50" height="50" relative="1" as="geometry">
            <mxPoint x="180" y="199.76" as="sourcePoint" />
            <mxPoint x="144" y="199.76" as="targetPoint" />
          </mxGeometry>
        </mxCell>
        <mxCell id="LThgHDOsHw4A7JoDxQi0-7" value="" style="endArrow=classicThin;html=1;sketch=1;hachureGap=2;fontFamily=Gloria Hallelujah;fontSource=https%3A%2F%2Ffonts.googleapis.com%2Fcss%3Ffamily%3DGloria%2BHallelujah;fontSize=16;startSize=14;endSize=14;sourcePerimeterSpacing=8;targetPerimeterSpacing=8;entryX=1;entryY=0.5;entryDx=0;entryDy=0;endFill=0;curved=1;strokeColor=default;metaEdit=0;disableMultiStroke=0;startFill=1;exitX=0;exitY=0.5;exitDx=0;exitDy=0;" parent="1" source="WIYzFzr_MrQD7wktzNtW-5" target="WIYzFzr_MrQD7wktzNtW-4" edge="1">
          <mxGeometry width="50" height="50" relative="1" as="geometry">
            <mxPoint x="146" y="210" as="sourcePoint" />
            <mxPoint x="110" y="210" as="targetPoint" />
          </mxGeometry>
        </mxCell>
        <mxCell id="LThgHDOsHw4A7JoDxQi0-8" value="" style="endArrow=classicThin;html=1;sketch=1;hachureGap=2;fontFamily=Gloria Hallelujah;fontSource=https%3A%2F%2Ffonts.googleapis.com%2Fcss%3Ffamily%3DGloria%2BHallelujah;fontSize=16;startSize=14;endSize=14;sourcePerimeterSpacing=8;targetPerimeterSpacing=8;entryX=1;entryY=0.5;entryDx=0;entryDy=0;endFill=0;curved=1;strokeColor=default;metaEdit=0;disableMultiStroke=0;startFill=1;exitX=0;exitY=0.5;exitDx=0;exitDy=0;" parent="1" source="WIYzFzr_MrQD7wktzNtW-6" target="WIYzFzr_MrQD7wktzNtW-5" edge="1">
          <mxGeometry width="50" height="50" relative="1" as="geometry">
            <mxPoint x="156" y="220" as="sourcePoint" />
            <mxPoint x="120" y="220" as="targetPoint" />
          </mxGeometry>
        </mxCell>
        <mxCell id="LThgHDOsHw4A7JoDxQi0-9" value="" style="rounded=1;whiteSpace=wrap;html=1;sketch=1;hachureGap=4;fontFamily=Architects Daughter;fontSource=https%3A%2F%2Ffonts.googleapis.com%2Fcss%3Ffamily%3DArchitects%2BDaughter;fontSize=20;fillColor=none;" parent="1" vertex="1">
          <mxGeometry x="480" y="110" width="60" height="60" as="geometry" />
        </mxCell>
        <mxCell id="LThgHDOsHw4A7JoDxQi0-10" value="" style="rounded=1;whiteSpace=wrap;html=1;sketch=1;hachureGap=4;fontFamily=Architects Daughter;fontSource=https%3A%2F%2Ffonts.googleapis.com%2Fcss%3Ffamily%3DArchitects%2BDaughter;fontSize=20;fillColor=none;" parent="1" vertex="1">
          <mxGeometry x="560" y="213" width="60" height="60" as="geometry" />
        </mxCell>
        <mxCell id="LThgHDOsHw4A7JoDxQi0-11" value="" style="rounded=1;whiteSpace=wrap;html=1;sketch=1;hachureGap=4;fontFamily=Architects Daughter;fontSource=https%3A%2F%2Ffonts.googleapis.com%2Fcss%3Ffamily%3DArchitects%2BDaughter;fontSize=20;fillColor=none;" parent="1" vertex="1">
          <mxGeometry x="660" y="160" width="60" height="60" as="geometry" />
        </mxCell>
        <mxCell id="LThgHDOsHw4A7JoDxQi0-12" value="" style="rounded=1;whiteSpace=wrap;html=1;sketch=1;hachureGap=4;fontFamily=Architects Daughter;fontSource=https%3A%2F%2Ffonts.googleapis.com%2Fcss%3Ffamily%3DArchitects%2BDaughter;fontSize=20;fillColor=none;" parent="1" vertex="1">
          <mxGeometry x="760" y="213" width="60" height="60" as="geometry" />
        </mxCell>
        <mxCell id="LThgHDOsHw4A7JoDxQi0-13" value="" style="endArrow=classicThin;html=1;sketch=1;hachureGap=2;fontFamily=Gloria Hallelujah;fontSource=https%3A%2F%2Ffonts.googleapis.com%2Fcss%3Ffamily%3DGloria%2BHallelujah;fontSize=16;startSize=14;endSize=14;sourcePerimeterSpacing=8;targetPerimeterSpacing=8;entryX=1;entryY=0.5;entryDx=0;entryDy=0;endFill=0;curved=1;strokeColor=default;metaEdit=0;disableMultiStroke=0;startFill=1;exitX=0;exitY=0.5;exitDx=0;exitDy=0;" parent="1" source="LThgHDOsHw4A7JoDxQi0-10" target="WIYzFzr_MrQD7wktzNtW-6" edge="1">
          <mxGeometry width="50" height="50" relative="1" as="geometry">
            <mxPoint x="390" y="210" as="sourcePoint" />
            <mxPoint x="350" y="210" as="targetPoint" />
          </mxGeometry>
        </mxCell>
        <mxCell id="LThgHDOsHw4A7JoDxQi0-14" value="" style="endArrow=classicThin;html=1;sketch=1;hachureGap=2;fontFamily=Gloria Hallelujah;fontSource=https%3A%2F%2Ffonts.googleapis.com%2Fcss%3Ffamily%3DGloria%2BHallelujah;fontSize=16;startSize=14;endSize=14;sourcePerimeterSpacing=8;targetPerimeterSpacing=8;endFill=0;curved=1;strokeColor=default;metaEdit=0;disableMultiStroke=0;startFill=1;exitX=0;exitY=0.5;exitDx=0;exitDy=0;" parent="1" source="LThgHDOsHw4A7JoDxQi0-9" edge="1">
          <mxGeometry width="50" height="50" relative="1" as="geometry">
            <mxPoint x="400" y="220" as="sourcePoint" />
            <mxPoint x="440" y="200" as="targetPoint" />
          </mxGeometry>
        </mxCell>
        <mxCell id="LThgHDOsHw4A7JoDxQi0-15" value="" style="endArrow=classicThin;html=1;sketch=1;hachureGap=2;fontFamily=Gloria Hallelujah;fontSource=https%3A%2F%2Ffonts.googleapis.com%2Fcss%3Ffamily%3DGloria%2BHallelujah;fontSize=16;startSize=14;endSize=14;sourcePerimeterSpacing=8;targetPerimeterSpacing=8;entryX=1;entryY=0.5;entryDx=0;entryDy=0;endFill=0;curved=1;strokeColor=default;metaEdit=0;disableMultiStroke=0;startFill=1;exitX=0;exitY=0.5;exitDx=0;exitDy=0;" parent="1" source="LThgHDOsHw4A7JoDxQi0-12" target="LThgHDOsHw4A7JoDxQi0-10" edge="1">
          <mxGeometry width="50" height="50" relative="1" as="geometry">
            <mxPoint x="410" y="230" as="sourcePoint" />
            <mxPoint x="370" y="230" as="targetPoint" />
          </mxGeometry>
        </mxCell>
        <mxCell id="LThgHDOsHw4A7JoDxQi0-17" value="" style="endArrow=classicThin;html=1;sketch=1;hachureGap=2;fontFamily=Gloria Hallelujah;fontSource=https%3A%2F%2Ffonts.googleapis.com%2Fcss%3Ffamily%3DGloria%2BHallelujah;fontSize=16;startSize=14;endSize=14;sourcePerimeterSpacing=8;targetPerimeterSpacing=8;entryX=1;entryY=0.5;entryDx=0;entryDy=0;endFill=0;curved=1;strokeColor=default;metaEdit=0;disableMultiStroke=0;startFill=1;exitX=0;exitY=0.5;exitDx=0;exitDy=0;" parent="1" source="LThgHDOsHw4A7JoDxQi0-11" target="LThgHDOsHw4A7JoDxQi0-10" edge="1">
          <mxGeometry width="50" height="50" relative="1" as="geometry">
            <mxPoint x="430" y="250" as="sourcePoint" />
            <mxPoint x="390" y="250" as="targetPoint" />
          </mxGeometry>
        </mxCell>
        <mxCell id="LThgHDOsHw4A7JoDxQi0-18" value="" style="curved=1;endArrow=classic;html=1;rounded=0;sketch=1;fontFamily=Gloria Hallelujah;fontSource=https%3A%2F%2Ffonts.googleapis.com%2Fcss%3Ffamily%3DGloria%2BHallelujah;fontSize=20;entryX=0.5;entryY=0;entryDx=0;entryDy=0;" parent="1" target="WIYzFzr_MrQD7wktzNtW-6" edge="1">
          <mxGeometry width="50" height="50" relative="1" as="geometry">
            <mxPoint x="360" y="120" as="sourcePoint" />
            <mxPoint x="450" y="540" as="targetPoint" />
            <Array as="points">
              <mxPoint x="380" y="160" />
              <mxPoint x="390" y="130" />
            </Array>
          </mxGeometry>
        </mxCell>
        <mxCell id="LThgHDOsHw4A7JoDxQi0-19" value="Checkpoint" style="text;html=1;strokeColor=none;fillColor=none;align=center;verticalAlign=middle;whiteSpace=wrap;rounded=0;sketch=1;fontFamily=Gloria Hallelujah;fontSource=https%3A%2F%2Ffonts.googleapis.com%2Fcss%3Ffamily%3DGloria%2BHallelujah;fontSize=20;" parent="1" vertex="1">
          <mxGeometry x="330" y="90" width="60" height="30" as="geometry" />
        </mxCell>
        <mxCell id="LThgHDOsHw4A7JoDxQi0-20" value="" style="verticalLabelPosition=bottom;shadow=0;dashed=0;align=center;html=1;verticalAlign=top;strokeWidth=1;shape=mxgraph.mockup.markup.curlyBrace;strokeColor=#000000;sketch=1;fontFamily=Gloria Hallelujah;fontSource=https%3A%2F%2Ffonts.googleapis.com%2Fcss%3Ffamily%3DGloria%2BHallelujah;fontSize=20;fillColor=#000000;rotation=-180;" parent="1" vertex="1">
          <mxGeometry x="40" y="292" width="400" height="20" as="geometry" />
        </mxCell>
        <mxCell id="LThgHDOsHw4A7JoDxQi0-21" value="" style="verticalLabelPosition=bottom;shadow=0;dashed=0;align=center;html=1;verticalAlign=top;strokeWidth=1;shape=mxgraph.mockup.markup.curlyBrace;strokeColor=#000000;sketch=1;fontFamily=Gloria Hallelujah;fontSource=https%3A%2F%2Ffonts.googleapis.com%2Fcss%3Ffamily%3DGloria%2BHallelujah;fontSize=20;fillColor=#000000;rotation=-180;" parent="1" vertex="1">
          <mxGeometry x="480" y="292" width="340" height="20" as="geometry" />
        </mxCell>
        <mxCell id="LThgHDOsHw4A7JoDxQi0-22" value="Finalised" style="text;html=1;strokeColor=none;fillColor=none;align=center;verticalAlign=middle;whiteSpace=wrap;rounded=0;sketch=1;fontFamily=Gloria Hallelujah;fontSource=https%3A%2F%2Ffonts.googleapis.com%2Fcss%3Ffamily%3DGloria%2BHallelujah;fontSize=20;" parent="1" vertex="1">
          <mxGeometry x="210" y="320" width="60" height="30" as="geometry" />
        </mxCell>
        <mxCell id="LThgHDOsHw4A7JoDxQi0-23" value="Forkful" style="text;html=1;strokeColor=none;fillColor=none;align=center;verticalAlign=middle;whiteSpace=wrap;rounded=0;sketch=1;fontFamily=Gloria Hallelujah;fontSource=https%3A%2F%2Ffonts.googleapis.com%2Fcss%3Ffamily%3DGloria%2BHallelujah;fontSize=20;" parent="1" vertex="1">
          <mxGeometry x="620" y="320" width="60" height="30" as="geometry" />
        </mxCell>
      </root>
    </mxGraphModel>
  </diagram>
  <diagram id="o83hvCj41vLqNIWDtGIm" name="reversion_1">
    <mxGraphModel dx="2074" dy="1093" grid="1" gridSize="10" guides="1" tooltips="1" connect="1" arrows="1" fold="1" page="1" pageScale="1" pageWidth="850" pageHeight="1100" math="0" shadow="0">
      <root>
        <mxCell id="0" />
        <mxCell id="1" parent="0" />
        <mxCell id="b0Y8e6YeYQsT-KzG8wcP-1" value="&lt;font data-font-src=&quot;https://fonts.googleapis.com/css?family=Gloria+Hallelujah&quot; style=&quot;font-size: 24px;&quot; face=&quot;Gloria Hallelujah&quot;&gt;A&lt;/font&gt;" style="rounded=1;whiteSpace=wrap;html=1;sketch=1;hachureGap=4;fontFamily=Architects Daughter;fontSource=https%3A%2F%2Ffonts.googleapis.com%2Fcss%3Ffamily%3DArchitects%2BDaughter;fontSize=20;fillColor=#000000;fillStyle=hachure;" parent="1" vertex="1">
          <mxGeometry x="41" y="170" width="60" height="60" as="geometry" />
        </mxCell>
        <mxCell id="b0Y8e6YeYQsT-KzG8wcP-2" value="&lt;font style=&quot;font-size: 24px;&quot; data-font-src=&quot;https://fonts.googleapis.com/css?family=Gloria+Hallelujah&quot; face=&quot;Gloria Hallelujah&quot;&gt;B&lt;/font&gt;" style="rounded=1;whiteSpace=wrap;html=1;sketch=1;hachureGap=4;fontFamily=Architects Daughter;fontSource=https%3A%2F%2Ffonts.googleapis.com%2Fcss%3Ffamily%3DArchitects%2BDaughter;fontSize=20;fillColor=#000000;fillStyle=hachure;" parent="1" vertex="1">
          <mxGeometry x="141" y="170" width="60" height="60" as="geometry" />
        </mxCell>
        <mxCell id="b0Y8e6YeYQsT-KzG8wcP-3" value="" style="endArrow=classicThin;html=1;sketch=1;hachureGap=2;fontFamily=Gloria Hallelujah;fontSource=https%3A%2F%2Ffonts.googleapis.com%2Fcss%3Ffamily%3DGloria%2BHallelujah;fontSize=16;startSize=14;endSize=14;sourcePerimeterSpacing=8;targetPerimeterSpacing=8;entryX=1;entryY=0.5;entryDx=0;entryDy=0;endFill=0;curved=1;strokeColor=default;metaEdit=0;disableMultiStroke=0;startFill=1;exitX=0;exitY=0.5;exitDx=0;exitDy=0;" parent="1" source="b0Y8e6YeYQsT-KzG8wcP-2" target="b0Y8e6YeYQsT-KzG8wcP-1" edge="1">
          <mxGeometry width="50" height="50" relative="1" as="geometry">
            <mxPoint x="7" y="210" as="sourcePoint" />
            <mxPoint x="-29" y="210" as="targetPoint" />
          </mxGeometry>
        </mxCell>
        <mxCell id="b0Y8e6YeYQsT-KzG8wcP-4" value="&lt;font style=&quot;font-size: 24px;&quot; data-font-src=&quot;https://fonts.googleapis.com/css?family=Gloria+Hallelujah&quot; face=&quot;Gloria Hallelujah&quot;&gt;C&lt;/font&gt;" style="rounded=1;whiteSpace=wrap;html=1;sketch=1;hachureGap=4;fontFamily=Architects Daughter;fontSource=https%3A%2F%2Ffonts.googleapis.com%2Fcss%3Ffamily%3DArchitects%2BDaughter;fontSize=20;fillColor=none;dashed=1;" parent="1" vertex="1">
          <mxGeometry x="240" y="120" width="60" height="60" as="geometry" />
        </mxCell>
        <mxCell id="b0Y8e6YeYQsT-KzG8wcP-5" value="&lt;font style=&quot;font-size: 24px;&quot; data-font-src=&quot;https://fonts.googleapis.com/css?family=Gloria+Hallelujah&quot; face=&quot;Gloria Hallelujah&quot;&gt;D&lt;/font&gt;" style="rounded=1;whiteSpace=wrap;html=1;sketch=1;hachureGap=4;fontFamily=Architects Daughter;fontSource=https%3A%2F%2Ffonts.googleapis.com%2Fcss%3Ffamily%3DArchitects%2BDaughter;fontSize=20;fillColor=#000000;fillStyle=hachure;" parent="1" vertex="1">
          <mxGeometry x="340" y="200" width="60" height="60" as="geometry" />
        </mxCell>
        <mxCell id="b0Y8e6YeYQsT-KzG8wcP-6" value="&lt;font data-font-src=&quot;https://fonts.googleapis.com/css?family=Gloria+Hallelujah&quot; style=&quot;font-size: 24px;&quot; face=&quot;Gloria Hallelujah&quot;&gt;E&lt;/font&gt;" style="rounded=1;whiteSpace=wrap;html=1;sketch=1;hachureGap=4;fontFamily=Architects Daughter;fontSource=https%3A%2F%2Ffonts.googleapis.com%2Fcss%3Ffamily%3DArchitects%2BDaughter;fontSize=20;fillColor=#000000;fillStyle=hachure;" parent="1" vertex="1">
          <mxGeometry x="440" y="200" width="60" height="60" as="geometry" />
        </mxCell>
        <mxCell id="b0Y8e6YeYQsT-KzG8wcP-7" value="&lt;font style=&quot;font-size: 24px;&quot; data-font-src=&quot;https://fonts.googleapis.com/css?family=Gloria+Hallelujah&quot; face=&quot;Gloria Hallelujah&quot;&gt;F&lt;/font&gt;" style="rounded=1;whiteSpace=wrap;html=1;sketch=1;hachureGap=4;fontFamily=Architects Daughter;fontSource=https%3A%2F%2Ffonts.googleapis.com%2Fcss%3Ffamily%3DArchitects%2BDaughter;fontSize=20;fillColor=#000000;fillStyle=hachure;" parent="1" vertex="1">
          <mxGeometry x="540" y="200" width="60" height="60" as="geometry" />
        </mxCell>
        <mxCell id="b0Y8e6YeYQsT-KzG8wcP-8" value="" style="endArrow=classicThin;html=1;sketch=1;hachureGap=2;fontFamily=Gloria Hallelujah;fontSource=https%3A%2F%2Ffonts.googleapis.com%2Fcss%3Ffamily%3DGloria%2BHallelujah;fontSize=16;startSize=14;endSize=14;sourcePerimeterSpacing=8;targetPerimeterSpacing=8;entryX=1;entryY=0.5;entryDx=0;entryDy=0;endFill=0;curved=1;strokeColor=default;metaEdit=0;disableMultiStroke=0;startFill=1;exitX=0;exitY=0.5;exitDx=0;exitDy=0;" parent="1" source="b0Y8e6YeYQsT-KzG8wcP-4" target="b0Y8e6YeYQsT-KzG8wcP-2" edge="1">
          <mxGeometry width="50" height="50" relative="1" as="geometry">
            <mxPoint x="151" y="210" as="sourcePoint" />
            <mxPoint x="111" y="210" as="targetPoint" />
          </mxGeometry>
        </mxCell>
        <mxCell id="b0Y8e6YeYQsT-KzG8wcP-9" value="" style="endArrow=classicThin;html=1;sketch=1;hachureGap=2;fontFamily=Gloria Hallelujah;fontSource=https%3A%2F%2Ffonts.googleapis.com%2Fcss%3Ffamily%3DGloria%2BHallelujah;fontSize=16;startSize=14;endSize=14;sourcePerimeterSpacing=8;targetPerimeterSpacing=8;entryX=1;entryY=0.5;entryDx=0;entryDy=0;endFill=0;curved=1;strokeColor=default;metaEdit=0;disableMultiStroke=0;startFill=1;exitX=0;exitY=0.5;exitDx=0;exitDy=0;" parent="1" source="b0Y8e6YeYQsT-KzG8wcP-5" target="b0Y8e6YeYQsT-KzG8wcP-2" edge="1">
          <mxGeometry width="50" height="50" relative="1" as="geometry">
            <mxPoint x="161" y="220" as="sourcePoint" />
            <mxPoint x="121" y="220" as="targetPoint" />
          </mxGeometry>
        </mxCell>
        <mxCell id="b0Y8e6YeYQsT-KzG8wcP-10" value="" style="endArrow=classicThin;html=1;sketch=1;hachureGap=2;fontFamily=Gloria Hallelujah;fontSource=https%3A%2F%2Ffonts.googleapis.com%2Fcss%3Ffamily%3DGloria%2BHallelujah;fontSize=16;startSize=14;endSize=14;sourcePerimeterSpacing=8;targetPerimeterSpacing=8;entryX=1;entryY=0.5;entryDx=0;entryDy=0;endFill=0;curved=1;strokeColor=default;metaEdit=0;disableMultiStroke=0;startFill=1;exitX=0;exitY=0.5;exitDx=0;exitDy=0;" parent="1" source="b0Y8e6YeYQsT-KzG8wcP-6" target="b0Y8e6YeYQsT-KzG8wcP-5" edge="1">
          <mxGeometry width="50" height="50" relative="1" as="geometry">
            <mxPoint x="151" y="210" as="sourcePoint" />
            <mxPoint x="111" y="210" as="targetPoint" />
          </mxGeometry>
        </mxCell>
        <mxCell id="b0Y8e6YeYQsT-KzG8wcP-11" value="" style="endArrow=classicThin;html=1;sketch=1;hachureGap=2;fontFamily=Gloria Hallelujah;fontSource=https%3A%2F%2Ffonts.googleapis.com%2Fcss%3Ffamily%3DGloria%2BHallelujah;fontSize=16;startSize=14;endSize=14;sourcePerimeterSpacing=8;targetPerimeterSpacing=8;entryX=1;entryY=0.5;entryDx=0;entryDy=0;endFill=0;curved=1;strokeColor=default;metaEdit=0;disableMultiStroke=0;startFill=1;exitX=0;exitY=0.5;exitDx=0;exitDy=0;" parent="1" source="b0Y8e6YeYQsT-KzG8wcP-7" target="b0Y8e6YeYQsT-KzG8wcP-6" edge="1">
          <mxGeometry width="50" height="50" relative="1" as="geometry">
            <mxPoint x="450" y="240" as="sourcePoint" />
            <mxPoint x="410" y="240" as="targetPoint" />
          </mxGeometry>
        </mxCell>
        <mxCell id="E3oA8_ejkc1nQpMJB82y-1" value="Head&lt;br&gt;Block" style="text;html=1;strokeColor=none;fillColor=none;align=center;verticalAlign=middle;whiteSpace=wrap;rounded=0;dashed=1;sketch=1;fillStyle=hachure;fontFamily=Gloria Hallelujah;fontSource=https%3A%2F%2Ffonts.googleapis.com%2Fcss%3Ffamily%3DGloria%2BHallelujah;fontSize=24;" parent="1" vertex="1">
          <mxGeometry x="660" y="230" width="60" height="30" as="geometry" />
        </mxCell>
        <mxCell id="E3oA8_ejkc1nQpMJB82y-2" value="" style="curved=1;endArrow=classic;html=1;rounded=0;sketch=1;fontFamily=Gloria Hallelujah;fontSource=https%3A%2F%2Ffonts.googleapis.com%2Fcss%3Ffamily%3DGloria%2BHallelujah;fontSize=24;" parent="1" edge="1">
          <mxGeometry width="50" height="50" relative="1" as="geometry">
            <mxPoint x="652" y="237" as="sourcePoint" />
            <mxPoint x="610" y="220" as="targetPoint" />
            <Array as="points">
              <mxPoint x="613" y="237" />
              <mxPoint x="652" y="220" />
            </Array>
          </mxGeometry>
        </mxCell>
      </root>
    </mxGraphModel>
  </diagram>
  <diagram name="reversion_2" id="Jghn_0XhbnIcLF9chEAV">
    <mxGraphModel dx="2074" dy="1093" grid="1" gridSize="10" guides="1" tooltips="1" connect="1" arrows="1" fold="1" page="1" pageScale="1" pageWidth="850" pageHeight="1100" math="0" shadow="0">
      <root>
        <mxCell id="J80e4cAbBr0Swiec6uMj-0" />
        <mxCell id="J80e4cAbBr0Swiec6uMj-1" parent="J80e4cAbBr0Swiec6uMj-0" />
        <mxCell id="J80e4cAbBr0Swiec6uMj-2" value="&lt;font data-font-src=&quot;https://fonts.googleapis.com/css?family=Gloria+Hallelujah&quot; style=&quot;font-size: 24px;&quot; face=&quot;Gloria Hallelujah&quot;&gt;A&lt;/font&gt;" style="rounded=1;whiteSpace=wrap;html=1;sketch=1;hachureGap=4;fontFamily=Architects Daughter;fontSource=https%3A%2F%2Ffonts.googleapis.com%2Fcss%3Ffamily%3DArchitects%2BDaughter;fontSize=20;fillColor=#000000;fillStyle=hachure;" parent="J80e4cAbBr0Swiec6uMj-1" vertex="1">
          <mxGeometry x="41" y="170" width="60" height="60" as="geometry" />
        </mxCell>
        <mxCell id="J80e4cAbBr0Swiec6uMj-3" value="&lt;font style=&quot;font-size: 24px;&quot; data-font-src=&quot;https://fonts.googleapis.com/css?family=Gloria+Hallelujah&quot; face=&quot;Gloria Hallelujah&quot;&gt;B&lt;/font&gt;" style="rounded=1;whiteSpace=wrap;html=1;sketch=1;hachureGap=4;fontFamily=Architects Daughter;fontSource=https%3A%2F%2Ffonts.googleapis.com%2Fcss%3Ffamily%3DArchitects%2BDaughter;fontSize=20;fillColor=#000000;fillStyle=hachure;" parent="J80e4cAbBr0Swiec6uMj-1" vertex="1">
          <mxGeometry x="141" y="170" width="60" height="60" as="geometry" />
        </mxCell>
        <mxCell id="J80e4cAbBr0Swiec6uMj-4" value="" style="endArrow=classicThin;html=1;sketch=1;hachureGap=2;fontFamily=Gloria Hallelujah;fontSource=https%3A%2F%2Ffonts.googleapis.com%2Fcss%3Ffamily%3DGloria%2BHallelujah;fontSize=16;startSize=14;endSize=14;sourcePerimeterSpacing=8;targetPerimeterSpacing=8;entryX=1;entryY=0.5;entryDx=0;entryDy=0;endFill=0;curved=1;strokeColor=default;metaEdit=0;disableMultiStroke=0;startFill=1;exitX=0;exitY=0.5;exitDx=0;exitDy=0;" parent="J80e4cAbBr0Swiec6uMj-1" source="J80e4cAbBr0Swiec6uMj-3" target="J80e4cAbBr0Swiec6uMj-2" edge="1">
          <mxGeometry width="50" height="50" relative="1" as="geometry">
            <mxPoint x="7" y="210" as="sourcePoint" />
            <mxPoint x="-29" y="210" as="targetPoint" />
          </mxGeometry>
        </mxCell>
        <mxCell id="J80e4cAbBr0Swiec6uMj-5" value="&lt;font style=&quot;font-size: 24px;&quot; data-font-src=&quot;https://fonts.googleapis.com/css?family=Gloria+Hallelujah&quot; face=&quot;Gloria Hallelujah&quot;&gt;C&lt;/font&gt;" style="rounded=1;whiteSpace=wrap;html=1;sketch=1;hachureGap=4;fontFamily=Architects Daughter;fontSource=https%3A%2F%2Ffonts.googleapis.com%2Fcss%3Ffamily%3DArchitects%2BDaughter;fontSize=20;fillColor=#000000;fillStyle=hachure;" parent="J80e4cAbBr0Swiec6uMj-1" vertex="1">
          <mxGeometry x="240" y="120" width="60" height="60" as="geometry" />
        </mxCell>
        <mxCell id="J80e4cAbBr0Swiec6uMj-6" value="&lt;font style=&quot;font-size: 24px;&quot; data-font-src=&quot;https://fonts.googleapis.com/css?family=Gloria+Hallelujah&quot; face=&quot;Gloria Hallelujah&quot;&gt;D&lt;/font&gt;" style="rounded=1;whiteSpace=wrap;html=1;sketch=1;hachureGap=4;fontFamily=Architects Daughter;fontSource=https%3A%2F%2Ffonts.googleapis.com%2Fcss%3Ffamily%3DArchitects%2BDaughter;fontSize=20;fillColor=none;fillStyle=hachure;dashed=1;" parent="J80e4cAbBr0Swiec6uMj-1" vertex="1">
          <mxGeometry x="340" y="200" width="60" height="60" as="geometry" />
        </mxCell>
        <mxCell id="J80e4cAbBr0Swiec6uMj-7" value="&lt;font data-font-src=&quot;https://fonts.googleapis.com/css?family=Gloria+Hallelujah&quot; style=&quot;font-size: 24px;&quot; face=&quot;Gloria Hallelujah&quot;&gt;E&lt;/font&gt;" style="rounded=1;whiteSpace=wrap;html=1;sketch=1;hachureGap=4;fontFamily=Architects Daughter;fontSource=https%3A%2F%2Ffonts.googleapis.com%2Fcss%3Ffamily%3DArchitects%2BDaughter;fontSize=20;fillColor=none;fillStyle=hachure;dashed=1;" parent="J80e4cAbBr0Swiec6uMj-1" vertex="1">
          <mxGeometry x="440" y="200" width="60" height="60" as="geometry" />
        </mxCell>
        <mxCell id="J80e4cAbBr0Swiec6uMj-8" value="&lt;font style=&quot;font-size: 24px;&quot; data-font-src=&quot;https://fonts.googleapis.com/css?family=Gloria+Hallelujah&quot; face=&quot;Gloria Hallelujah&quot;&gt;F&lt;/font&gt;" style="rounded=1;whiteSpace=wrap;html=1;sketch=1;hachureGap=4;fontFamily=Architects Daughter;fontSource=https%3A%2F%2Ffonts.googleapis.com%2Fcss%3Ffamily%3DArchitects%2BDaughter;fontSize=20;fillColor=none;fillStyle=hachure;dashed=1;" parent="J80e4cAbBr0Swiec6uMj-1" vertex="1">
          <mxGeometry x="540" y="200" width="60" height="60" as="geometry" />
        </mxCell>
        <mxCell id="J80e4cAbBr0Swiec6uMj-9" value="" style="endArrow=classicThin;html=1;sketch=1;hachureGap=2;fontFamily=Gloria Hallelujah;fontSource=https%3A%2F%2Ffonts.googleapis.com%2Fcss%3Ffamily%3DGloria%2BHallelujah;fontSize=16;startSize=14;endSize=14;sourcePerimeterSpacing=8;targetPerimeterSpacing=8;entryX=1;entryY=0.5;entryDx=0;entryDy=0;endFill=0;curved=1;strokeColor=default;metaEdit=0;disableMultiStroke=0;startFill=1;exitX=0;exitY=0.5;exitDx=0;exitDy=0;" parent="J80e4cAbBr0Swiec6uMj-1" source="J80e4cAbBr0Swiec6uMj-5" target="J80e4cAbBr0Swiec6uMj-3" edge="1">
          <mxGeometry width="50" height="50" relative="1" as="geometry">
            <mxPoint x="151" y="210" as="sourcePoint" />
            <mxPoint x="111" y="210" as="targetPoint" />
          </mxGeometry>
        </mxCell>
        <mxCell id="J80e4cAbBr0Swiec6uMj-10" value="" style="endArrow=classicThin;html=1;sketch=1;hachureGap=2;fontFamily=Gloria Hallelujah;fontSource=https%3A%2F%2Ffonts.googleapis.com%2Fcss%3Ffamily%3DGloria%2BHallelujah;fontSize=16;startSize=14;endSize=14;sourcePerimeterSpacing=8;targetPerimeterSpacing=8;entryX=1;entryY=0.5;entryDx=0;entryDy=0;endFill=0;curved=1;strokeColor=default;metaEdit=0;disableMultiStroke=0;startFill=1;exitX=0;exitY=0.5;exitDx=0;exitDy=0;" parent="J80e4cAbBr0Swiec6uMj-1" source="J80e4cAbBr0Swiec6uMj-6" target="J80e4cAbBr0Swiec6uMj-3" edge="1">
          <mxGeometry width="50" height="50" relative="1" as="geometry">
            <mxPoint x="161" y="220" as="sourcePoint" />
            <mxPoint x="121" y="220" as="targetPoint" />
          </mxGeometry>
        </mxCell>
        <mxCell id="J80e4cAbBr0Swiec6uMj-11" value="" style="endArrow=classicThin;html=1;sketch=1;hachureGap=2;fontFamily=Gloria Hallelujah;fontSource=https%3A%2F%2Ffonts.googleapis.com%2Fcss%3Ffamily%3DGloria%2BHallelujah;fontSize=16;startSize=14;endSize=14;sourcePerimeterSpacing=8;targetPerimeterSpacing=8;entryX=1;entryY=0.5;entryDx=0;entryDy=0;endFill=0;curved=1;strokeColor=default;metaEdit=0;disableMultiStroke=0;startFill=1;exitX=0;exitY=0.5;exitDx=0;exitDy=0;" parent="J80e4cAbBr0Swiec6uMj-1" source="J80e4cAbBr0Swiec6uMj-7" target="J80e4cAbBr0Swiec6uMj-6" edge="1">
          <mxGeometry width="50" height="50" relative="1" as="geometry">
            <mxPoint x="151" y="210" as="sourcePoint" />
            <mxPoint x="111" y="210" as="targetPoint" />
          </mxGeometry>
        </mxCell>
        <mxCell id="J80e4cAbBr0Swiec6uMj-12" value="" style="endArrow=classicThin;html=1;sketch=1;hachureGap=2;fontFamily=Gloria Hallelujah;fontSource=https%3A%2F%2Ffonts.googleapis.com%2Fcss%3Ffamily%3DGloria%2BHallelujah;fontSize=16;startSize=14;endSize=14;sourcePerimeterSpacing=8;targetPerimeterSpacing=8;entryX=1;entryY=0.5;entryDx=0;entryDy=0;endFill=0;curved=1;strokeColor=default;metaEdit=0;disableMultiStroke=0;startFill=1;exitX=0;exitY=0.5;exitDx=0;exitDy=0;" parent="J80e4cAbBr0Swiec6uMj-1" source="J80e4cAbBr0Swiec6uMj-8" target="J80e4cAbBr0Swiec6uMj-7" edge="1">
          <mxGeometry width="50" height="50" relative="1" as="geometry">
            <mxPoint x="450" y="240" as="sourcePoint" />
            <mxPoint x="410" y="240" as="targetPoint" />
          </mxGeometry>
        </mxCell>
        <mxCell id="nS1W7NH2VI0UPHIOi9sB-0" value="&lt;font style=&quot;font-size: 24px;&quot; data-font-src=&quot;https://fonts.googleapis.com/css?family=Gloria+Hallelujah&quot; face=&quot;Gloria Hallelujah&quot;&gt;G&lt;/font&gt;" style="rounded=1;whiteSpace=wrap;html=1;sketch=1;hachureGap=4;fontFamily=Architects Daughter;fontSource=https%3A%2F%2Ffonts.googleapis.com%2Fcss%3Ffamily%3DArchitects%2BDaughter;fontSize=20;fillColor=#000000;fillStyle=hachure;" parent="J80e4cAbBr0Swiec6uMj-1" vertex="1">
          <mxGeometry x="640" y="120" width="60" height="60" as="geometry" />
        </mxCell>
        <mxCell id="nS1W7NH2VI0UPHIOi9sB-1" value="" style="endArrow=classicThin;html=1;sketch=1;hachureGap=2;fontFamily=Gloria Hallelujah;fontSource=https%3A%2F%2Ffonts.googleapis.com%2Fcss%3Ffamily%3DGloria%2BHallelujah;fontSize=16;startSize=14;endSize=14;sourcePerimeterSpacing=8;targetPerimeterSpacing=8;entryX=1;entryY=0.5;entryDx=0;entryDy=0;endFill=0;curved=1;strokeColor=default;metaEdit=0;disableMultiStroke=0;startFill=1;exitX=0;exitY=0.5;exitDx=0;exitDy=0;" parent="J80e4cAbBr0Swiec6uMj-1" source="nS1W7NH2VI0UPHIOi9sB-0" target="J80e4cAbBr0Swiec6uMj-5" edge="1">
          <mxGeometry width="50" height="50" relative="1" as="geometry">
            <mxPoint x="350" y="240" as="sourcePoint" />
            <mxPoint x="211" y="210" as="targetPoint" />
          </mxGeometry>
        </mxCell>
        <mxCell id="Ml2WwI-BO5Vb02eJoBEe-0" value="Head&lt;br&gt;Block" style="text;html=1;strokeColor=none;fillColor=none;align=center;verticalAlign=middle;whiteSpace=wrap;rounded=0;dashed=1;sketch=1;fillStyle=hachure;fontFamily=Gloria Hallelujah;fontSource=https%3A%2F%2Ffonts.googleapis.com%2Fcss%3Ffamily%3DGloria%2BHallelujah;fontSize=24;" parent="J80e4cAbBr0Swiec6uMj-1" vertex="1">
          <mxGeometry x="660" y="243" width="60" height="30" as="geometry" />
        </mxCell>
        <mxCell id="Ml2WwI-BO5Vb02eJoBEe-1" value="" style="curved=1;endArrow=classic;html=1;rounded=0;sketch=1;fontFamily=Gloria Hallelujah;fontSource=https%3A%2F%2Ffonts.googleapis.com%2Fcss%3Ffamily%3DGloria%2BHallelujah;fontSize=24;strokeColor=default;" parent="J80e4cAbBr0Swiec6uMj-1" edge="1">
          <mxGeometry width="50" height="50" relative="1" as="geometry">
            <mxPoint x="689" y="230" as="sourcePoint" />
            <mxPoint x="659" y="186" as="targetPoint" />
            <Array as="points">
              <mxPoint x="677" y="195" />
              <mxPoint x="668" y="219" />
            </Array>
          </mxGeometry>
        </mxCell>
      </root>
    </mxGraphModel>
  </diagram>
</mxfile>
